<svg width="65" height="65" viewBox="0 0 65 65" xmlns="http://www.w3.org/2000/svg" xmlns:xlink="http://www.w3.org/1999/xlink">
    <defs>
        <path d="M65 32.5C65 14.55 50.45 0 32.5 0S0 14.55 0 32.5 14.55 65 32.5 65 65 50.45 65 32.5zm-63.646 0C1.354 15.299 15.3 1.354 32.5 1.354S63.646 15.3 63.646 32.5 49.7 63.646 32.5 63.646 1.354 49.7 1.354 32.5z" id="l9jgi1ivma"/>
    </defs>
    <g fill="none" fill-rule="evenodd">
        <path d="M65 32.5C65 14.55 50.45 0 32.5 0S0 14.55 0 32.5 14.55 65 32.5 65 65 50.45 65 32.5zm-63.646 0C1.354 15.299 15.3 1.354 32.5 1.354S63.646 15.3 63.646 32.5 49.7 63.646 32.5 63.646 1.354 49.7 1.354 32.5z" fill="#005792"/>
        <g>
            <mask id="15fc5gmlab" fill="#fff">
                <use xlink:href="#l9jgi1ivma"/>
            </mask>
            <path fill="#005792" fill-rule="nonzero" mask="url(#15fc5gmlab)" d="M0 0h65v65H0z"/>
        </g>
        <path d="M32.5 46.042c-.71 0-1.422-.051-2.133-.17l-.44-.067-.779-2.996c-.524-.17-1.049-.39-1.54-.644l-2.674 1.575-.356-.254a13.542 13.542 0 0 1-3.03-3.03l-.254-.356 1.575-2.674a10.39 10.39 0 0 1-.644-1.558l-2.996-.778-.067-.44c-.119-.711-.17-1.422-.17-2.133 0-.711.051-1.422.17-2.133l.067-.44 2.996-.779c.17-.524.39-1.05.643-1.54l-1.574-2.674.254-.356a13.542 13.542 0 0 1 3.03-3.03l.356-.254 2.657 1.524a10.41 10.41 0 0 1 1.557-.644l.78-2.996.44-.067a13.97 13.97 0 0 1 4.282 0l.44.067.778 2.996c.525.17 1.05.39 1.54.644l2.675-1.575.356.254a13.543 13.543 0 0 1 3.03 3.03l.254.356-1.558 2.691c.254.508.474 1.016.644 1.557l2.996.78.067.44c.119.71.17 1.421.17 2.132 0 .71-.051 1.422-.17 2.133l-.067.44-2.996.779c-.17.524-.39 1.049-.644 1.54l1.575 2.674-.254.356a13.542 13.542 0 0 1-3.03 3.03l-.356.254-2.674-1.575a10.39 10.39 0 0 1-1.558.644l-.778 2.996-.44.068c-.728.152-1.44.203-2.15.203zm-1.49-1.44c1 .12 1.98.12 2.98 0l.744-2.877.373-.101a9.253 9.253 0 0 0 1.98-.83l.339-.186 2.573 1.507c.778-.61 1.49-1.32 2.116-2.116l-1.507-2.573.186-.339a9.253 9.253 0 0 0 .83-1.98l.101-.373 2.878-.744c.068-.491.084-1 .084-1.49s-.033-.999-.084-1.49l-2.878-.744-.101-.373a9.253 9.253 0 0 0-.83-1.98l-.186-.339 1.507-2.573c-.61-.778-1.32-1.49-2.116-2.116l-2.573 1.507-.339-.186a9.253 9.253 0 0 0-1.98-.83l-.373-.101-.744-2.878a12.528 12.528 0 0 0-2.98 0l-.744 2.878-.373.101a9.253 9.253 0 0 0-1.98.83l-.339.186-2.573-1.507c-.778.61-1.49 1.32-2.116 2.116l1.507 2.573-.186.339a9.253 9.253 0 0 0-.83 1.98l-.101.373-2.878.744c-.05.491-.084 1-.084 1.49s.033.999.084 1.49l2.878.744.101.373c.203.694.474 1.354.83 1.98l.186.339-1.507 2.573c.61.778 1.32 1.49 2.116 2.116l2.573-1.507.339.186a9.253 9.253 0 0 0 1.98.83l.373.101.744 2.878zm.813-11.425h7.448v-1.354h-6.094v-8.125h-1.354v9.48z" fill="#005792"/>
    </g>
</svg>
