<svg width="65" height="65" viewBox="0 0 65 65" xmlns="http://www.w3.org/2000/svg" xmlns:xlink="http://www.w3.org/1999/xlink">
    <defs>
        <path d="M65 32.5C65 14.55 50.45 0 32.5 0S0 14.55 0 32.5 14.55 65 32.5 65 65 50.45 65 32.5zm-63.646 0C1.354 15.299 15.3 1.354 32.5 1.354S63.646 15.3 63.646 32.5 49.7 63.646 32.5 63.646 1.354 49.7 1.354 32.5z" id="v0kv0ddo9a"/>
    </defs>
    <g fill="none" fill-rule="evenodd">
        <path d="M65 32.5C65 14.55 50.45 0 32.5 0S0 14.55 0 32.5 14.55 65 32.5 65 65 50.45 65 32.5zm-63.646 0C1.354 15.299 15.3 1.354 32.5 1.354S63.646 15.3 63.646 32.5 49.7 63.646 32.5 63.646 1.354 49.7 1.354 32.5z" fill="#005792"/>
        <g>
            <mask id="gpwesi07wb" fill="#fff">
                <use xlink:href="#v0kv0ddo9a"/>
            </mask>
            <path fill="#005792" fill-rule="nonzero" mask="url(#gpwesi07wb)" d="M0 0h65v65H0z"/>
        </g>
        <path d="M29.033 31.783a.837.837 0 0 1-1.191 0l-4.22-4.218a.842.842 0 0 1 0-1.192.838.838 0 0 1 1.193 0l3.623 3.623 7.841-7.842a.842.842 0 0 1 1.192 0 .838.838 0 0 1 0 1.192l-8.438 8.437zm0 11.813a.837.837 0 0 1-1.191 0l-7.595-7.594a.842.842 0 0 1 0-1.192.839.839 0 0 1 1.193 0l6.998 6.998L42.185 28.06a.837.837 0 0 1 1.192 0 .837.837 0 0 1 0 1.192L29.033 43.596z" fill="#005792" fill-rule="nonzero"/>
    </g>
</svg>
