<svg width="65" height="65" viewBox="0 0 65 65" xmlns="http://www.w3.org/2000/svg" xmlns:xlink="http://www.w3.org/1999/xlink">
    <defs>
        <path d="M65 32.5C65 14.55 50.45 0 32.5 0S0 14.55 0 32.5 14.55 65 32.5 65 65 50.45 65 32.5zm-63.646 0C1.354 15.299 15.3 1.354 32.5 1.354S63.646 15.3 63.646 32.5 49.7 63.646 32.5 63.646 1.354 49.7 1.354 32.5z" id="o18g3xraaa"/>
    </defs>
    <g fill="none" fill-rule="evenodd">
        <path d="M65 32.5C65 14.55 50.45 0 32.5 0S0 14.55 0 32.5 14.55 65 32.5 65 65 50.45 65 32.5zm-63.646 0C1.354 15.299 15.3 1.354 32.5 1.354S63.646 15.3 63.646 32.5 49.7 63.646 32.5 63.646 1.354 49.7 1.354 32.5z" fill="#005792"/>
        <g>
            <mask id="4hdsi9fi5b" fill="#fff">
                <use xlink:href="#o18g3xraaa"/>
            </mask>
            <path fill="#005792" fill-rule="nonzero" mask="url(#4hdsi9fi5b)" d="M0 0h65v65H0z"/>
        </g>
        <path d="M43.858 27.134c-1.473-4.841-6.077-8.176-11.358-8.176-5.281 0-9.885 3.335-11.358 8.176-1.303.203-2.184 1.253-2.184 2.658v6.093c0 1.592 1.118 2.709 2.709 2.709 1.59 0 2.708-1.117 2.708-2.709v-6.093c0-1.287-.728-2.252-1.828-2.59 1.388-4.097 5.383-6.89 9.953-6.89 4.57 0 8.565 2.793 9.953 6.89-1.117.338-1.828 1.303-1.828 2.59v6.093c0 1.355.813 2.37 2.031 2.641v3.453c0 .897-.457 1.354-1.354 1.354h-.118a1.903 1.903 0 0 0-.491-.778 1.996 1.996 0 0 0-1.422-.576h-3.386c-.575 0-1.083.186-1.455.559-.373.372-.576.897-.576 1.472 0 1.185.846 2.032 2.031 2.032h3.386c.93 0 1.659-.542 1.93-1.355h.101c1.642 0 2.708-1.066 2.708-2.708v-3.453c1.22-.27 2.032-1.27 2.032-2.64v-6.094c0-1.405-.88-2.455-2.184-2.658zm-20.837 2.658v6.093c0 1-.694 1.355-1.354 1.355-.66 0-1.355-.356-1.355-1.355v-6.093c0-.999.694-1.355 1.355-1.355.66 0 1.354.356 1.354 1.355zm16.25 14.895h-3.386c-.626 0-.677-.524-.677-.677 0-.22.068-.406.187-.507.101-.102.27-.17.49-.17h3.403c.186 0 .355.068.474.17a.73.73 0 0 1 .203.507c-.017.153-.068.678-.694.678zm5.416-8.802c0 1-.694 1.355-1.354 1.355-.66 0-1.354-.356-1.354-1.355v-6.093c0-.999.694-1.355 1.354-1.355.66 0 1.355.356 1.355 1.355v6.093z" fill="#005792"/>
    </g>
</svg>
