<svg width="65" height="65" viewBox="0 0 65 65" xmlns="http://www.w3.org/2000/svg" xmlns:xlink="http://www.w3.org/1999/xlink">
    <defs>
        <path d="M65 32.5C65 14.55 50.45 0 32.5 0S0 14.55 0 32.5 14.55 65 32.5 65 65 50.45 65 32.5zm-63.646 0C1.354 15.299 15.3 1.354 32.5 1.354S63.646 15.3 63.646 32.5 49.7 63.646 32.5 63.646 1.354 49.7 1.354 32.5z" id="rz9x3gu5ja"/>
    </defs>
    <g fill="none" fill-rule="evenodd">
        <path d="M65 32.5C65 14.55 50.45 0 32.5 0S0 14.55 0 32.5 14.55 65 32.5 65 65 50.45 65 32.5zm-63.646 0C1.354 15.299 15.3 1.354 32.5 1.354S63.646 15.3 63.646 32.5 49.7 63.646 32.5 63.646 1.354 49.7 1.354 32.5z" fill="#005792"/>
        <g>
            <mask id="vrccgf9zib" fill="#fff">
                <use xlink:href="#rz9x3gu5ja"/>
            </mask>
            <path fill="#005792" fill-rule="nonzero" mask="url(#vrccgf9zib)" d="M0 0h65v65H0z"/>
        </g>
        <path d="M36.344 29.5a4.218 4.218 0 0 1-4.219 4.219 4.218 4.218 0 0 1-4.219-4.219 4.218 4.218 0 0 1 4.219-4.219 4.218 4.218 0 0 1 4.219 4.219zm-4.219 2.531a2.532 2.532 0 1 0-.001-5.064 2.532 2.532 0 0 0 .001 5.064zM42.25 29.5c0 4.609-6.17 12.814-8.875 16.2a1.593 1.593 0 0 1-2.5 0C28.122 42.314 22 34.109 22 29.5c0-5.592 4.533-10.125 10.125-10.125 5.59 0 10.125 4.533 10.125 10.125zm-10.125-8.438a8.435 8.435 0 0 0-8.438 8.438c0 .823.287 1.951.874 3.343.575 1.366 1.384 2.848 2.298 4.33 1.796 2.916 3.927 5.706 5.266 7.388 1.34-1.682 3.47-4.472 5.268-7.388.912-1.482 1.72-2.964 2.294-4.33.59-1.392.875-2.52.875-3.343a8.435 8.435 0 0 0-8.437-8.438z" fill="#005792" fill-rule="nonzero"/>
    </g>
</svg>
