<svg width="65" height="65" viewBox="0 0 65 65" xmlns="http://www.w3.org/2000/svg" xmlns:xlink="http://www.w3.org/1999/xlink">
    <defs>
        <path d="M65 32.5C65 14.55 50.45 0 32.5 0S0 14.55 0 32.5 14.55 65 32.5 65 65 50.45 65 32.5zm-63.646 0C1.354 15.299 15.3 1.354 32.5 1.354S63.646 15.3 63.646 32.5 49.7 63.646 32.5 63.646 1.354 49.7 1.354 32.5z" id="j78n3wyj0a"/>
    </defs>
    <g fill="none" fill-rule="evenodd">
        <path d="M65 32.5C65 14.55 50.45 0 32.5 0S0 14.55 0 32.5 14.55 65 32.5 65 65 50.45 65 32.5zm-63.646 0C1.354 15.299 15.3 1.354 32.5 1.354S63.646 15.3 63.646 32.5 49.7 63.646 32.5 63.646 1.354 49.7 1.354 32.5z" fill="#005792"/>
        <g>
            <mask id="tya8mfbelb" fill="#fff">
                <use xlink:href="#j78n3wyj0a"/>
            </mask>
            <path fill="#005792" fill-rule="nonzero" mask="url(#tya8mfbelb)" d="M0 0h65v65H0z"/>
        </g>
        <path d="M36.156 25.475c.745.474 2.032 1.422 3.301 3.047 1.777 2.251 3.876 6.297 3.876 12.78a4.753 4.753 0 0 1-4.74 4.74H26.407a4.754 4.754 0 0 1-4.74-4.74c0-6.483 2.1-10.529 3.877-12.78 1.27-1.625 2.556-2.573 3.3-3.047l-3.402-5.45.66-.339c.068-.034 1.524-.745 3.014-.745.761 0 1.337.187 1.845.351l.067.022c.491.17.914.305 1.473.305s.982-.136 1.473-.305l.039-.013c.516-.166 1.114-.36 1.873-.36 1.507 0 2.946.711 3.013.745l.66.339-3.402 5.45zm-5.569-4.858c-.49-.17-.897-.305-1.472-.305-.593 0-1.22.153-1.71.322l2.76 4.418h4.67l2.76-4.418c-.457-.152-1.1-.322-1.71-.322-.558 0-.981.136-1.472.305l-.068.022c-.508.164-1.083.35-1.845.35s-1.337-.186-1.845-.35l-.068-.022zm8.007 24.07H26.406a3.395 3.395 0 0 1-3.385-3.385c0-6.06 1.913-9.8 3.52-11.866 1.49-1.913 2.98-2.81 3.42-3.03h5.078c.931.491 6.94 4.13 6.94 14.896a3.395 3.395 0 0 1-3.385 3.386zm-8.887-6.415c.39.965 1.32 1.574 2.556 1.676h-.017v1.219h.728v-1.22c.643-.067 1.05-.202 1.405-.422.592-.39.897-.965.897-1.71 0-.779-.288-1.286-.88-1.625-.322-.186-.728-.305-1.422-.457v-1.726c.423.101.677.338.965.846l1.15-.61c-.473-.846-1.1-1.269-2.115-1.404v-.864h-.728v.847c-.525.033-.863.118-1.185.287-.677.339-1.05.982-1.05 1.76 0 .695.288 1.253.847 1.592.355.22.711.339 1.405.49v1.829c-.643-.102-1.032-.423-1.32-1.066l-1.236.558zm1.642-3.52c0-.475.288-.729.914-.813v1.642c-.677-.17-.914-.39-.914-.83zm1.642 4.045c.626-.102.914-.372.914-.846 0-.44-.237-.66-.914-.847v1.693z" fill="#005792"/>
    </g>
</svg>
