<svg width="65" height="65" viewBox="0 0 65 65" xmlns="http://www.w3.org/2000/svg" xmlns:xlink="http://www.w3.org/1999/xlink">
    <defs>
        <path d="M65 32.5C65 14.55 50.45 0 32.5 0S0 14.55 0 32.5 14.55 65 32.5 65 65 50.45 65 32.5zm-63.646 0C1.354 15.299 15.3 1.354 32.5 1.354S63.646 15.3 63.646 32.5 49.7 63.646 32.5 63.646 1.354 49.7 1.354 32.5z" id="dtssfqr97a"/>
    </defs>
    <g fill="none" fill-rule="evenodd">
        <path d="M65 32.5C65 14.55 50.45 0 32.5 0S0 14.55 0 32.5 14.55 65 32.5 65 65 50.45 65 32.5zm-63.646 0C1.354 15.299 15.3 1.354 32.5 1.354S63.646 15.3 63.646 32.5 49.7 63.646 32.5 63.646 1.354 49.7 1.354 32.5z" fill="#005792"/>
        <g>
            <mask id="9xvggh20cb" fill="#fff">
                <use xlink:href="#dtssfqr97a"/>
            </mask>
            <path fill="#005792" fill-rule="nonzero" mask="url(#9xvggh20cb)" d="M0 0h65v65H0z"/>
        </g>
        <path d="M30.87 39.314c-.281-.49-.931-.606-1.33-.206l-4.83 4.828c-.79.79-2.05.99-2.981.368a2.337 2.337 0 0 1-.367-3.585l7.108-7.108a.841.841 0 0 0-.001-1.191c-.33-.325-.863-.325-1.237.001l-7.103 7.104a4.015 4.015 0 0 0 0 5.669 3.979 3.979 0 0 0 3.369 1.137c.919-.12 1.754-.599 2.41-1.254l4.774-4.774c.258-.257.334-.66.15-.975.044-.004.039-.009.039-.014zM32.7 24.05a6.02 6.02 0 0 1 .896-1.15 6.244 6.244 0 0 1 4.423-1.838c.362 0 .725.033 1.087.092l-3.652 3.664.725 4.376 4.384.725 3.658-3.65a6.24 6.24 0 0 1-1.747 5.51 5.875 5.875 0 0 1-.75.633c-.41.291-.435.895-.078 1.25a.865.865 0 0 0 1.111.084c.319-.23.623-.49.91-.78a7.888 7.888 0 0 0 2.09-7.552 1.42 1.42 0 0 0-1.009-1.035c-.5-.139-1.034 0-1.403.37l-3.369 3.367-2.334-.393-.39-2.327 3.369-3.374c.362-.362.507-.896.369-1.397a1.44 1.44 0 0 0-1.042-1.008 7.909 7.909 0 0 0-7.546 2.089c-.436.44-.8.929-1.106 1.444-.2.336-.161.762.115 1.038.377.378 1.015.318 1.29-.138zM22.328 42.151c0 .461.382.796.843.796a.799.799 0 0 0 .797-.796c0-.414-.383-.796-.797-.796-.414 0-.843.332-.843.796zm23.176-2.241-6.56-6.566a4.206 4.206 0 0 0-2.986-1.232 4.18 4.18 0 0 0-2.326.699l-4.554-4.508v-3.868l-6.703-5.062L19 22.703l5.062 6.702 3.87-.001 4.508 4.507a4.219 4.219 0 0 0 .54 5.31l6.566 6.566c.321.42.711.588 1.191.588.428 0 .863-.165 1.187-.494l3.538-3.585a1.65 1.65 0 0 0 .042-2.386zM27.39 27.765h-2.484l-3.678-4.858 1.258-1.305 4.857 3.678v2.485h.047zm13.342 16.917-6.56-6.565a2.509 2.509 0 0 1-.745-1.786c0-.68.264-1.312.745-1.786a2.486 2.486 0 0 1 1.786-.745c.673 0 1.312.263 1.786.745l6.566 6.554-3.578 3.583z" fill="#005792" fill-rule="nonzero"/>
    </g>
</svg>
