<?xml version="1.0" encoding="UTF-8"?><svg id="a" xmlns="http://www.w3.org/2000/svg" viewBox="0 0 477 218.09"><defs><style>.b{fill:#005792;}.c{fill:#bfc0c2;}.d{fill:#088ece;}.e{fill:#e30613;fill-rule:evenodd;}</style></defs><g><path class="b" d="M37.64,147.88H0L53.36,0h47.98l52.33,147.88h-43.23l-8.07-25.03H45.92l-8.27,25.03Zm17.58-53.77h38.06l-18.82-57.7-19.23,57.7Z"/><path class="b" d="M293.49,87.28c0,41.16-21.92,63.08-63.29,63.08s-64.74-21.92-64.74-62.88V0h40.74V85.83c0,22.34,7.24,31.85,24.2,31.85s24.41-9.93,24.41-32.27V0h38.68V87.28Z"/><path class="d" d="M311.48,32.68V0h84.27V32.68h-21.72v46.15h-40.74V32.68h-21.81Z"/><path class="b" d="M413.75,.39V33.41c14.35,4.06,21.7,18.19,21.7,41.95,0,27.9-10.79,42.77-30.75,42.77-13.97,0-23.35-7.3-27.72-21.31h-41.89c7.91,32.59,34.15,53.49,69.81,53.49,42.98,0,72.1-30.35,72.1-75.16,0-41.52-25.47-71.1-63.25-74.77Z"/></g><g><path class="e" d="M327.78,201.7c0-1.64-1.22-2.79-3.77-2.79h-5.1v5.61h5.23c2.13,0,3.64-.75,3.64-2.82Zm-.92-11.14c.07-1.42-1.01-2.63-2.43-2.7-.1,0-.19,0-.29,0h-5.23v5.32h5.1c1.48,.09,2.76-1.04,2.84-2.52,0-.03,0-.06,0-.09h0Zm8.53,11.94c0,4.81-4.43,7.97-8.9,7.97h-14.59v-28.55h13.38c5.14,0,8.86,2.57,8.86,7.84,.04,2.58-1.53,4.92-3.93,5.86,3.09,.85,5.22,3.67,5.19,6.87h0Zm21.54-6.31c0-4.46-2.05-8.09-6.11-8.09s-6.07,3.63-6.07,8.09,1.99,8.14,6.07,8.14,6.11-3.63,6.11-8.15h0Zm6.97,0c0,8.4-4.81,14.94-13.13,14.94s-13.13-6.57-13.13-14.94,4.85-14.94,13.13-14.94,13.18,6.58,13.18,14.93h-.05Zm24.21,5.66c0,6.29-5.68,9.32-11.04,9.32-6.19,0-9.36-2.36-11.87-5.36l4.56-4.46c1.69,2.3,4.37,3.67,7.23,3.67,2.3,0,3.84-1.14,3.84-2.83s-1.36-2.37-5.1-3.16l-1-.21c-4.49-1-8.19-3.51-8.19-8.61,0-5.61,4.55-8.96,10.58-8.96,3.96-.13,7.77,1.51,10.41,4.46l-4.43,4.39c-1.5-1.65-3.62-2.61-5.86-2.66-1.63,0-3.47,.76-3.47,2.66,0,1.72,1.91,2.35,4.34,2.86l1,.22c4.12,.83,9.03,2.08,9.03,8.66h-.05Zm26.89,3.14c-2.92,4.21-5.64,6.2-11.29,6.2-8.03,0-13.21-6.66-13.21-15.14s4.68-14.75,13.3-14.75c4.72,0,8.11,1.85,10.96,6.2l-5.77,3.83c-.94-2-2.97-3.26-5.18-3.2-3.18,0-6.24,2.84-6.24,7.92,0,5.71,3.31,8.31,6.44,8.31,2.71,0,3.98-1.34,5.14-3.29l5.84,3.92Zm26.48,5.52h-7.53v-11.26h-8.66v11.26h-7.48v-28.55h7.48v10.5h8.66v-10.5h7.53v28.55Z"/><g><path class="c" d="M262.55,193.05c1.48-2.42,4.14-3.87,6.97-3.8,5.37,0,8.96,4.25,8.96,10.74s-3.53,10.96-8.96,10.96c-2.83,.12-5.5-1.31-6.97-3.73v3.37h-3.32v-30.18h3.32v12.65Zm-.12,7.05c0,5.13,2.36,8.05,6.49,8.05s6.09-2.64,6.09-7.97-2.24-8.17-6.05-8.17c-4.07,0-6.53,3.05-6.53,8.09Z"/><path class="c" d="M290.78,213.83c-1,2.89-2.76,4.25-5.4,4.25-1.43,.03-2.83-.41-3.98-1.25l1.2-2.4c.76,.58,1.69,.88,2.64,.88,1.47,.02,2.74-1.03,2.99-2.48l.76-2.53-7.85-20.7h3.61l5.89,15.94,5.41-15.94h3.49l-8.74,24.22Z"/></g></g></svg>